<svg width="245" height="263" viewBox="0 0 245 263" fill="none" xmlns="http://www.w3.org/2000/svg">
<g clip-path="url(#clip0_216_1010)">
<path d="M90.9957 242.012C90.9957 249.779 84.7288 256.025 76.9644 256.025C69.2 256.025 62.9331 249.766 62.9331 242.012C62.9331 234.246 69.2 228 76.9644 228C84.7288 228 90.9957 234.258 90.9957 242.012Z" fill="#D5D5D5"/>
<path d="M245 88.2238C245 95.9905 238.733 102.237 230.969 102.237C223.192 102.237 216.937 95.978 216.937 88.2238C216.937 80.4571 223.204 74.2111 230.969 74.2111C238.733 74.2111 245 80.4571 245 88.2238Z" fill="#D5D5D5"/>
<path d="M146.982 248.987C146.982 256.754 140.715 263 132.951 263C125.174 263 118.92 256.741 118.92 248.987C118.92 241.233 125.187 234.974 132.951 234.974C140.715 234.974 146.982 241.308 146.982 248.987Z" fill="#D5D5D5"/>
<path d="M195.985 228C195.985 235.766 189.718 242.012 181.954 242.012C174.189 242.012 167.922 235.754 167.922 228C167.922 220.233 174.189 213.987 181.954 213.987C189.731 214.062 195.985 220.321 195.985 228Z" fill="#D5D5D5"/>
<path d="M146.982 193.074C146.982 200.841 140.715 207.087 132.951 207.087C125.174 207.087 118.92 200.829 118.92 193.074C118.92 185.308 125.187 179.062 132.951 179.062C140.715 179.062 146.982 185.32 146.982 193.074Z" fill="#D5D5D5"/>
<path d="M195.985 165.124C195.985 172.891 189.718 179.137 181.954 179.137C174.189 179.137 167.922 172.878 167.922 165.124C167.922 157.358 174.189 151.112 181.954 151.112C189.731 151.099 195.985 157.358 195.985 165.124Z" fill="#D5D5D5"/>
<path d="M245 137.162C245 144.928 238.733 151.174 230.969 151.174C223.192 151.174 216.937 144.916 216.937 137.162C216.937 129.395 223.204 123.149 230.969 123.149C238.733 123.149 245 129.408 245 137.162Z" fill="#D5D5D5"/>
<path d="M238.016 193.074C238.016 200.841 231.749 207.087 223.985 207.087C216.208 207.087 209.953 200.829 209.953 193.074C209.953 185.308 216.22 179.062 223.985 179.062C231.749 179.062 238.016 185.32 238.016 193.074Z" fill="#D5D5D5"/>
<path d="M7.02181 95.1862C4.64341 95.1862 2.50411 93.9923 1.15761 92.0192C-0.113383 90.0335 -0.352481 87.5829 0.528406 85.4464C22.3996 33.6558 73.2394 0 129.541 0C133.429 0 136.525 3.16701 136.525 6.97496C136.525 10.7829 133.354 13.9499 129.541 13.9499C78.9526 14.0253 33.1967 44.2753 13.4523 90.8504C12.3323 93.5273 9.80289 95.1862 7.02181 95.1862Z" fill="#D5D5D5"/>
</g>
<defs>
<clipPath id="clip0_216_1010">
<rect width="245" height="263" fill="white"/>
</clipPath>
</defs>
</svg>
