<svg xmlns="http://www.w3.org/2000/svg" viewBox="0 0 682.79 366.96"><g id="Layer_2" data-name="Layer 2"><g id="Layer_1-2" data-name="Layer 1"><path d="M161.71,338.62h7.15l0,.25h-2.21a6.13,6.13,0,0,0,.12,1.27l2.43,10.43,5.57-10.19a2.25,2.25,0,0,0,.34-.91c0-.42-.28-.6-.94-.6H173l0-.25h4.79l0,.25c-1.63,0-2,.3-2.66,1.48L169.26,351l-1.58,9.06H170l0,.24h-7.54l0-.24h2.27l1.61-9.06-2.91-12.12h-1.7Z"/><path d="M182.24,354.38c0-4.78,3.15-9.09,7.85-9.09,3.64,0,5.7,2.21,5.7,6.06,0,4.88-3.12,9.25-7.82,9.25C184.36,360.6,182.24,358.32,182.24,354.38Zm10.55-4.3c0-2.82-.67-4.55-2.76-4.55-3.24,0-4.79,5.79-4.79,10.28,0,2.82.7,4.54,2.79,4.54C191.3,360.35,192.79,354.57,192.79,350.08Z"/><path d="M211.31,345.6l-1.72,9.75a17,17,0,0,0-.34,2.88c0,1.24.49,1.76,1.49,1.76,1.21,0,2.45-.76,3.91-3.12l.67-1.12,1.78-10.15H220l-2.21,12.57a11,11,0,0,0-.18,1.3c0,.37.18.58.66.58h1.12l0,.24h-2.93c-1.25,0-1.64-.42-1.64-1,0-.18.06-.45.48-2.88l-.42.7c-1.73,2.88-3.43,3.52-5.21,3.52s-3.09-.76-3.09-3.22a14.27,14.27,0,0,1,.21-2l1.7-9.51h-1.91l.06-.24Z"/><path d="M235.18,345.6l-.43,4.21h.06c1.34-3.67,2.52-4.52,4.12-4.52s2.31.76,2.31,2c0,1.67-1.58,2.73-3.52,2.94l-.06-.09a3.38,3.38,0,0,0,1.25-2.7c0-.66-.31-1.21-1-1.21-1,0-1.81.88-3.06,4.24l-1.72,9.82h-2.88l2.54-14.45h-1.91l.07-.24Z"/><path d="M271.17,345.29c2.51,0,4.33.73,4.33,2.33s-1.91,2.13-2.67,2.16l-.06-.09a2.62,2.62,0,0,0,.85-2c0-1-.54-2.13-2.48-2.13a2.93,2.93,0,0,0-3.22,3c0,1.31.73,2.19,2.88,3.28,2.49,1.3,3.55,2.33,3.55,4.24,0,2.61-2.27,4.55-5.76,4.55-3.21,0-4.7-1.16-4.7-2.58s1.49-2.12,2.85-2.12l.09.06a2.35,2.35,0,0,0-.93,2.06c0,1.15.6,2.33,2.75,2.33s3.28-1.18,3.28-2.91c0-1.24-.55-2.09-2.79-3.24-2.46-1.21-3.49-2.27-3.49-4.24C265.65,347.29,267.86,345.29,271.17,345.29Z"/><path d="M287.67,360.29h-2.88l3.94-22.48h-1.91l.06-.25h4.75l-2.09,11.85.4-.6c1.76-2.85,3.48-3.52,5.27-3.52s3.09.76,3.09,3.21a10.75,10.75,0,0,1-.21,2l-1.36,7.64a10.51,10.51,0,0,0-.16,1.3c0,.37.16.58.67.58h1.12l0,.24h-3c-1.21,0-1.6-.42-1.6-1a7,7,0,0,1,.12-.82l1.36-7.91a18.16,18.16,0,0,0,.34-2.87c0-1.25-.49-1.76-1.49-1.76-1.21,0-2.48.75-4,3.12l-.7,1.12Z"/><path d="M309.22,354.38c0-4.78,3.15-9.09,7.85-9.09,3.64,0,5.7,2.21,5.7,6.06,0,4.88-3.12,9.25-7.82,9.25C311.35,360.6,309.22,358.32,309.22,354.38Zm10.55-4.3c0-2.82-.67-4.55-2.76-4.55-3.24,0-4.79,5.79-4.79,10.28,0,2.82.7,4.54,2.79,4.54C318.28,360.35,319.77,354.57,319.77,350.08Z"/><path d="M333.84,345.6h.34c2,0,3.39-1.49,4.48-3.67h.28l-.64,3.67h3l-.06.24h-3l-1.82,10.42a11.47,11.47,0,0,0-.15,1.61c0,1.39.51,2.06,1.52,2.06a1.82,1.82,0,0,0,1.57-.82l.15.09a3.45,3.45,0,0,1-3,1.4c-1.88,0-3-1.09-3-3.16a9.05,9.05,0,0,1,.09-1.24l1.82-10.36h-1.6Z"/><path d="M368.47,360.6c-2.88,0-4.36-2.06-4.36-5.22,0-4.91,2.6-10.09,7.45-10.09a3.17,3.17,0,0,1,3.09,1.73l.27-1.42h2.85l-2.18,12.57a11,11,0,0,0-.18,1.3c0,.37.15.58.64.58h1.12l0,.24H374.2c-1.28,0-1.55-.42-1.55-1A13.66,13.66,0,0,1,373,357l-.28.64A4.44,4.44,0,0,1,368.47,360.6Zm1.06-.64a3.62,3.62,0,0,0,2.94-2.46l.64-1.57,1.45-8.39a2.51,2.51,0,0,0-2.45-1.79c-3.82,0-5.06,6.27-5.06,10C367.05,357.87,367.29,360,369.53,360Z"/><path d="M388.73,345.6h.33c2,0,3.39-1.49,4.49-3.67h.27l-.64,3.67h3l-.06.24h-3l-1.82,10.42a11.47,11.47,0,0,0-.15,1.61c0,1.39.52,2.06,1.52,2.06a1.82,1.82,0,0,0,1.57-.82l.15.09a3.44,3.44,0,0,1-3,1.4c-1.88,0-3-1.09-3-3.16a9.05,9.05,0,0,1,.09-1.24l1.82-10.36h-1.6Z"/><path d="M423.35,360.6c-2.88,0-4.36-2.06-4.36-5.22,0-4.91,2.6-10.09,7.45-10.09a3.17,3.17,0,0,1,3.09,1.73l.28-1.42h2.84l-2.18,12.57a11,11,0,0,0-.18,1.3c0,.37.15.58.64.58h1.12l0,.24h-2.94c-1.27,0-1.55-.42-1.55-1a13.66,13.66,0,0,1,.31-2.24l-.28.64A4.43,4.43,0,0,1,423.35,360.6Zm1.06-.64a3.61,3.61,0,0,0,2.94-2.46l.64-1.57,1.45-8.39a2.51,2.51,0,0,0-2.45-1.79c-3.82,0-5.06,6.27-5.06,10C421.93,357.87,422.17,360,424.41,360Z"/><path d="M460.68,358.81l-1.37,7.85h-2.88l3.64-20.82h-1.91l.06-.24H463l-.61,3.33.31-.7a4.66,4.66,0,0,1,4.27-2.94c3.06,0,4.3,2.06,4.3,5.21,0,4.91-2.6,10.1-7.45,10.1A3.23,3.23,0,0,1,460.68,358.81Zm1.51-8.76-1.42,8.24a2.54,2.54,0,0,0,2.48,1.85c3.82,0,5.07-6.12,5.07-10,0-2.33-.34-4.27-2.4-4.27a3.79,3.79,0,0,0-3,2.48Z"/><path d="M491.84,356.66h.27c-.3,2-2.11,3.94-5.33,3.94s-5.39-2-5.39-5.94c0-5.28,3.15-9.37,7.72-9.37,3.1,0,4.52,1.12,4.52,2.91,0,2.91-3.18,4.33-7.06,4.33h-1.12v-.21h1.09c3.12,0,4.51-2.06,4.51-4.57,0-1.22-.42-2.22-2-2.22-3.3,0-4.69,4.43-4.69,8.73,0,3.18.85,5.7,3.79,5.7A3.83,3.83,0,0,0,491.84,356.66Z"/><path d="M508.34,345.6l-.43,4.21H508c1.33-3.67,2.51-4.52,4.12-4.52s2.3.76,2.3,2c0,1.67-1.57,2.73-3.51,2.94l-.07-.09a3.38,3.38,0,0,0,1.25-2.7c0-.66-.31-1.21-1-1.21-1,0-1.82.88-3.06,4.24l-1.73,9.82h-2.88l2.55-14.45H504l.06-.24Z"/><path d="M520,367l.06-.24c2-.4,3.12-2.37,3.6-5.1l2.79-15.78h-2.36l.06-.24h2.36c.55-3,3.1-8,7.43-8,1.57,0,2.85.52,2.85,1.67,0,1.64-2,2.67-3.7,2.67l-.06-.09a3.25,3.25,0,0,0,1.57-2.82c0-.58-.21-1.15-1-1.15-2.64,0-3.76,4.94-4.25,7.76h2.85l-.06.24h-2.82l-2.6,14.69C526,364.5,523.68,366.54,520,367Z"/><path d="M550.79,356.66h.27c-.3,2-2.12,3.94-5.33,3.94s-5.4-2-5.4-5.94c0-5.28,3.15-9.37,7.73-9.37,3.09,0,4.52,1.12,4.52,2.91,0,2.91-3.19,4.33-7.06,4.33h-1.13v-.21h1.09c3.12,0,4.52-2.06,4.52-4.57,0-1.22-.43-2.22-2-2.22-3.3,0-4.7,4.43-4.7,8.73,0,3.18.85,5.7,3.79,5.7A3.85,3.85,0,0,0,550.79,356.66Z"/><path d="M571.77,356.66H572A4.8,4.8,0,0,1,567,360.6c-3.12,0-5.21-2-5.21-5.94,0-5.16,3.42-9.37,7.82-9.37,2.66,0,4,1,4,2.61,0,1.79-1.46,2.72-3.3,2.91l-.07-.09a4.41,4.41,0,0,0,1.19-3.1c0-1.12-.31-2.09-1.82-2.09-3.37,0-4.82,4.43-4.82,8.73,0,3.21.94,5.73,3.48,5.73A3.85,3.85,0,0,0,571.77,356.66Z"/><path d="M583.84,345.6h.34c2,0,3.39-1.49,4.48-3.67h.27l-.63,3.67h3l-.06.24h-3l-1.82,10.42a11.47,11.47,0,0,0-.15,1.61c0,1.39.51,2.06,1.51,2.06a1.83,1.83,0,0,0,1.58-.82l.15.09a3.45,3.45,0,0,1-3,1.4c-1.88,0-3-1.09-3-3.16a9.05,9.05,0,0,1,.09-1.24l1.82-10.36h-1.61Z"/><path d="M618,337.81H616.1l.06-.25h4.76l-3.61,20.61a8.71,8.71,0,0,0-.15,1.3c0,.37.15.58.64.58h1.12l0,.24h-3c-1.21,0-1.6-.42-1.6-1a5.65,5.65,0,0,1,.09-.82Z"/><path d="M633,358.17a9.6,9.6,0,0,0-.15,1.3c0,.37.15.58.64.58h1.12l0,.24h-3c-1.21,0-1.61-.42-1.61-1a7,7,0,0,1,.12-.82l2.21-12.6h-1.9l.06-.24h4.75Zm0-17.3a2,2,0,0,1,1.94-2,1.17,1.17,0,0,1,1.27,1.21,2,2,0,0,1-2,2A1.17,1.17,0,0,1,633,340.87Z"/><path d="M641.79,367l.06-.24c2-.4,3.12-2.37,3.6-5.1l2.79-15.78h-2.36l.06-.24h2.36c.55-3,3.1-8,7.43-8,1.57,0,2.85.52,2.85,1.67,0,1.64-2,2.67-3.7,2.67l-.06-.09A3.26,3.26,0,0,0,656.4,339c0-.58-.22-1.15-1-1.15-2.64,0-3.76,4.94-4.25,7.76H654l-.06.24h-2.82l-2.6,14.69C647.82,364.5,645.52,366.54,641.79,367Z"/><path d="M672.62,356.66h.27c-.3,2-2.12,3.94-5.33,3.94s-5.4-2-5.4-5.94c0-5.28,3.16-9.37,7.73-9.37,3.09,0,4.52,1.12,4.52,2.91,0,2.91-3.18,4.33-7.06,4.33h-1.13v-.21h1.1c3.12,0,4.51-2.06,4.51-4.57,0-1.22-.42-2.22-2-2.22-3.3,0-4.69,4.43-4.69,8.73,0,3.18.84,5.7,3.78,5.7A3.84,3.84,0,0,0,672.62,356.66Z"/><path d="M86.77,117.68l0,54.76H85.44l-21.86-8.07c-.68,5-6.23,9.75-17.33,9.75C18.16,174.12,0,155.12,0,113.4,0,70.18,17.32,50.5,52.65,50.5c8.74,0,11.26,2,17.32,2a15.2,15.2,0,0,0,4.37-.68H77.2v32H75.52c-2.52-15.81-7.74-32-23-32C35.15,51.84,29.27,69,29.27,113.4c0,43.73,8.41,58.7,21.19,58.7,6.39,0,11.77-4.54,11.77-8.91V117.78H51.3v-1.35Z"/><path d="M199.85,194.71V308.88h9.25v1.34H162v-1.34h9.25V198.7s-75.6-10.42-84.47-80.29c-.05-.37-.09-1,0-.63C106.61,196.58,199.85,194.71,199.85,194.71Z"/><path d="M287.8,278.94c0,21.19-14.8,33-37.67,33-9.42,0-17.16-2.7-23.38-2.7a15.34,15.34,0,0,0-6.06,1h-1.17V280.29h1.68c2.19,16.82,15,30.27,28.76,30.27,11.61,0,15.81-7.91,15.81-16.31,0-13-6.22-20-22.2-33.14s-24-23.88-24-40.37c0-20.68,16.65-32.46,37.84-32.46,11.27,0,12.95,2.69,19.51,2.69a15.32,15.32,0,0,0,6.06-1h1.17v28.59h-1.68c-4.87-20.19-11.94-28.76-24.22-28.76-11.77,0-16.65,8.41-16.65,17.32,0,12.95,6.22,18.33,22.2,31.45S287.8,262.46,287.8,278.94Z"/><path d="M374.6,280.29v29.93H295.88v-1.34h9.25V191.31h-9.25V190H343v1.34h-9.25V308.88h12.44c14.63,0,26.74-14.8,26.74-28.59Z"/><path d="M402.3,310.22H377.24v-1.34c7.06,0,10.26-1.18,12.61-8.24l38-112.36h3.2l44.23,120.6h6.9v1.34H437v-1.34h7.9a52.82,52.82,0,0,0-1.85-6.39l-11.1-30.95H401.63l-10.26,30.27a14.23,14.23,0,0,0-.68,3.7c0,2.19.34,3.37,8.58,3.37h3ZM431.56,270l-15.13-42.56L402.13,270Z"/><path d="M569.87,310.22H566L495,197.37v96.54c0,9.76,3.36,15,14.3,15v1.34H482.4v-1.34c8.75,0,10.94-5.21,10.94-15V191.31h-9.25V190h40.2l43.89,69.8V204.6c0-9.76-6.72-13.29-16-13.29V190h28.6v1.34c-8.75,0-10.93,5.21-10.93,13.29Z"/><path d="M584.73,190h43.39c37.85,0,54.67,17.32,54.67,57.18,0,38.69-15.81,63.07-51.3,63.07H584.73v-1.34H594V191.31h-9.25Zm37.84,1.34V308.88h8.92c16.82,0,22-22.88,22-61.73,0-39-5.89-55.84-25.4-55.84Z"/><path d="M374.6,142.5v29.94H295.88v-1.35h9.25V53.53h-9.25V52.18H343v1.35h-9.25V171.09h12.44c14.63,0,26.74-14.8,26.74-28.59Z"/><path d="M455.67,51.54V81.48H454c0-13.79-8.75-28.59-23.38-28.59H419.84v60.55h5.39c8.91,0,14.12-5.39,18.67-13.12V127.9c-5-8.41-9.76-13.12-18.67-13.12h-5.39v55.67h12.28v1.35H382v-1.35h9.25V52.89H382V51.54Z"/><path d="M203.8,107.06a2.51,2.51,0,1,0-3.83.34A2.75,2.75,0,0,0,203.8,107.06Z"/><path d="M211.66,122.67c1.31,1.32,4.11.65,6.25-1.5s2.81-4.94,1.5-6.25-4.11-.64-6.25,1.5S210.34,121.36,211.66,122.67Z"/><path d="M228.72,132c-3.63,3.63-4.95,8.19-2.95,10.19s6.57.68,10.2-3,4.95-8.19,2.95-10.19S232.35,128.36,228.72,132Z"/><path d="M217.93,155.22c4.13-3.05,6.11-7.36,4.43-9.64s-6.39-1.65-10.52,1.4-6.11,7.36-4.43,9.64S213.8,158.27,217.93,155.22Z"/><path d="M202.1,159.36c-1.4-2.46-6.15-2.39-10.61.15s-6.94,6.6-5.54,9.06,6.15,2.38,10.61-.16S203.5,161.82,202.1,159.36Z"/><path d="M243.61,115.21c-3.05,4.13-3.67,8.84-1.4,10.52s6.6-.3,9.64-4.43,3.68-8.84,1.4-10.52S246.66,111.08,243.61,115.21Z"/><path d="M256.14,94.86c-2.54,4.46-2.61,9.21-.15,10.61s6.51-1.08,9.05-5.54,2.61-9.21.16-10.61S258.69,90.4,256.14,94.86Z"/><path d="M218.64,137.6c3.09-2.61,4.3-6.26,2.7-8.16s-5.4-1.31-8.49,1.29-4.3,6.26-2.7,8.15S215.55,140.2,218.64,137.6Z"/><path d="M201,150.82c3.34-2.29,4.91-5.8,3.5-7.84s-5.24-1.85-8.57.44-4.9,5.79-3.5,7.84S197.65,153.11,201,150.82Z"/><path d="M185.81,154c-1-2.28-4.79-2.81-8.5-1.2s-5.91,4.76-4.93,7,4.8,2.81,8.51,1.2S186.8,156.28,185.81,154Z"/><path d="M227.82,115.76c-2.6,3.09-3.18,6.89-1.28,8.49s5.54.39,8.15-2.7,3.18-6.89,1.29-8.49S230.43,112.67,227.82,115.76Z"/><path d="M247.91,103.89c2.29-3.33,2.48-7.17.44-8.57s-5.56.16-7.84,3.5-2.49,7.17-.44,8.57S245.62,107.23,247.91,103.89Z"/><path d="M249.9,80.22c-1.61,3.71-1.07,7.51,1.2,8.5s5.42-1.22,7-4.92,1.08-7.52-1.2-8.51S251.51,76.51,249.9,80.22Z"/><path d="M202.33,134.15c2.44-1.8,3.52-4.46,2.42-6s-4-1.25-6.41.55-3.52,4.47-2.41,6S199.9,136,202.33,134.15Z"/><path d="M185,145c2.73-1.3,4.3-3.72,3.5-5.39s-3.67-2-6.4-.68-4.3,3.72-3.5,5.39S182.23,146.26,185,145Z"/><path d="M164.52,146.17c-2.93.79-4.91,2.88-4.43,4.67s3.24,2.61,6.17,1.83,4.9-2.88,4.42-4.67S167.44,145.39,164.52,146.17Z"/><path d="M144.93,150.87c-3,.6-5.08,2.56-4.71,4.37s3.07,2.81,6,2.22,5.07-2.56,4.71-4.38S147.9,150.27,144.93,150.87Z"/><path d="M231,105.47c1.79-2.44,2-5.31.55-6.41s-4.17,0-6,2.42-2.05,5.3-.55,6.4S229.22,107.9,231,105.47Z"/><path d="M241.82,88.1c1.31-2.73,1-5.59-.67-6.39s-4.09.77-5.39,3.5-1,5.59.67,6.39S240.52,90.83,241.82,88.1Z"/><path d="M244.87,73.82c1.79.48,3.88-1.5,4.66-4.43s0-5.68-1.83-6.16-3.88,1.5-4.66,4.42S243.07,73.34,244.87,73.82Z"/><path d="M249.94,54.1c1.82.37,3.78-1.74,4.38-4.71s-.39-5.67-2.21-6-3.78,1.74-4.38,4.71S248.12,53.74,249.94,54.1Z"/><path d="M214.75,93.75a2.51,2.51,0,1,0-3.79.67A2.74,2.74,0,0,0,214.75,93.75Z"/><path d="M224.18,79.6a2.51,2.51,0,1,0-3.74.91A2.73,2.73,0,0,0,224.18,79.6Z"/><path d="M226.81,65.29a3,3,0,1,0-.68-3.78A2.76,2.76,0,0,0,226.81,65.29Z"/><path d="M230.79,49.05a3,3,0,1,0-.94-3.73A2.75,2.75,0,0,0,230.79,49.05Z"/><path d="M232.82,32.21a2.74,2.74,0,0,0,2.76-2.67,2.51,2.51,0,1,0-4.91-.52A2.74,2.74,0,0,0,232.82,32.21Z"/><path d="M190.7,117.8a2.51,2.51,0,1,0-3.84,0A2.74,2.74,0,0,0,190.7,117.8Z"/><path d="M176.55,127.23a2.5,2.5,0,1,0-3.83-.24A2.75,2.75,0,0,0,176.55,127.23Z"/><path d="M162.24,129.87a3,3,0,1,0-1.34,3.6A2.74,2.74,0,0,0,162.24,129.87Z"/><path d="M144.41,137.35a2.51,2.51,0,1,0-3.73-.95A2.74,2.74,0,0,0,144.41,137.35Z"/><path d="M126,133.72a2.51,2.51,0,1,0,3.19,2.15A2.73,2.73,0,0,0,126,133.72Z"/><path d="M203.64,119.69c1.69-1.54,2.13-3.82,1-5.07s-3.45-1-5.14.54-2.13,3.81-1,5.07S202,121.24,203.64,119.69Z"/><path d="M188.66,130.87c1.84-1.36,2.52-3.57,1.51-4.94s-3.33-1.38-5.17,0-2.52,3.58-1.51,4.94S186.81,132.23,188.66,130.87Z"/><path d="M174.4,134.52c-.84-1.47-3.14-1.75-5.13-.62s-2.92,3.25-2.08,4.73,3.14,1.76,5.13.62S175.24,136,174.4,134.52Z"/><path d="M152.45,139.55c-2.14.81-3.39,2.76-2.78,4.35s2.83,2.22,5,1.4,3.39-2.76,2.78-4.35S154.59,138.73,152.45,139.55Z"/><path d="M135,141.49c-2.28.24-4,1.8-3.81,3.49s2.17,2.87,4.45,2.63,4-1.8,3.8-3.49S137.24,141.25,135,141.49Z"/><path d="M212.16,102.47c-1.55,1.69-1.79,4-.53,5.14s3.52.71,5.07-1,1.79-4,.54-5.14S213.71,100.78,212.16,102.47Z"/><path d="M227.88,91.65c1.36-1.84,1.35-4.16,0-5.17s-3.58-.33-4.94,1.51-1.35,4.16,0,5.17S226.52,93.49,227.88,91.65Z"/><path d="M230.91,72.26c-1.14,2-.86,4.29.62,5.13s3.6-.09,4.73-2.08.86-4.29-.62-5.13S232,70.27,230.91,72.26Z"/><path d="M238,60.42c1.59.6,3.54-.64,4.36-2.78s.19-4.37-1.4-5-3.54.64-4.36,2.78S236.36,59.81,238,60.42Z"/><path d="M241.12,42.41c1.69.17,3.26-1.53,3.5-3.81s-.94-4.27-2.63-4.45-3.26,1.53-3.5,3.81S239.43,42.23,241.12,42.41Z"/><path d="M248.3,26a88.69,88.69,0,1,0,0,125.48A88.83,88.83,0,0,0,248.3,26ZM182.1,171.26a3.13,3.13,0,0,0,0-1.69c-.87-2.71-5.54-3.61-10.42-2a15.5,15.5,0,0,0-3.94,1.89c-2.33-.51-4.64-1.09-6.93-1.81,3.11-1.27,5.07-3.66,4.51-5.75-.64-2.4-4.33-3.49-8.24-2.45-3,.8-5.22,2.63-5.82,4.51A82.76,82.76,0,1,1,260.73,54.28C259,55,257.27,57.17,256.5,60c-1,3.91.05,7.6,2.45,8.24,2,.53,4.27-1.25,5.58-4.14.68,2.21,1.24,4.45,1.73,6.7A15,15,0,0,0,264.15,75c-1.57,4.91-.64,9.58,2,10.45a3.35,3.35,0,0,0,1.95-.09,83.29,83.29,0,0,1-1.93,21.45,19.46,19.46,0,0,0-4,4.78c-2.72,4.55-3.38,9.47-2,12.65-.25.52-.47,1.06-.73,1.58-3.55-.8-8.49,1.41-12.26,5.86-4.51,5.35-5.57,11.87-2.54,14.87l-.23.25c-3-3.05-9.53-2-14.88,2.54-4.64,3.93-6.87,9.15-5.76,12.71-.38.2-.79.36-1.17.55-3.14-1.68-8.35-1.14-13.17,1.75a19.23,19.23,0,0,0-5.47,4.88A83.41,83.41,0,0,1,182.1,171.26Z"/></g></g></svg>