<svg width="49" height="49" viewBox="0 0 49 49" fill="none" xmlns="http://www.w3.org/2000/svg">
<g clip-path="url(#clip0_22_234)">
<path d="M21.1825 43.7365C20.4025 43.7365 19.5925 43.4665 19.0225 42.8965C18.4525 42.3265 18.1825 41.5165 18.1825 40.7365V39.2365H4.6825V9.23645H21.4825C21.2875 10.1964 21.1825 11.2015 21.1825 12.2365H7.6825V22.0765C8.5675 21.5665 9.58749 21.2365 10.6825 21.2365H24.1975C25.0375 22.3764 26.0575 23.3965 27.1975 24.2365H10.6825C8.8975 24.2365 7.6825 25.4515 7.6825 27.2365V36.2365H40.6825V27.2365C40.6825 26.9965 40.6675 26.7715 40.6225 26.5615C41.7025 26.2315 42.7225 25.7815 43.6825 25.2264V39.2365H30.1825V40.7365C30.1825 41.5165 29.9125 42.3265 29.3425 42.8965C28.7725 43.4665 27.9625 43.7365 27.1825 43.7365H21.1825ZM21.1825 40.7365H27.1825V39.2365H21.1825V40.7365ZM13.6825 30.2365V25.7365H16.6825V30.2365H13.6825ZM31.6825 30.2365V26.5464C32.6593 26.8517 33.6644 27.0578 34.6825 27.1614V30.2365H31.6825ZM36.1825 24.2365C29.5675 24.2365 24.1825 18.8514 24.1825 12.2365C24.1825 5.62145 29.5675 0.23645 36.1825 0.23645C42.7975 0.23645 48.1825 5.62145 48.1825 12.2365C48.1825 18.8514 42.7975 24.2365 36.1825 24.2365ZM36.1825 21.2365C41.1625 21.2365 45.1825 17.2164 45.1825 12.2365C45.1825 7.25645 41.1625 3.23645 36.1825 3.23645C31.2025 3.23645 27.1825 7.25645 27.1825 12.2365C27.1825 17.2164 31.2025 21.2365 36.1825 21.2365ZM34.6825 19.7365V10.7365H42.1825V13.7365H37.6825V19.7365H34.6825Z" fill="black"/>
</g>
<defs>
<clipPath id="clip0_22_234">
<rect width="48" height="48" fill="white" transform="matrix(1 0 0 -1 0.182495 48.2365)"/>
</clipPath>
</defs>
</svg>
