<svg width="150" height="81" viewBox="0 0 150 81" fill="none" xmlns="http://www.w3.org/2000/svg">
<g clip-path="url(#clip0_2_7924)">
<path d="M35.5256 74.3904H37.0963V74.4453H36.6108C36.6099 74.539 36.6187 74.6325 36.6372 74.7243L37.171 77.0156L38.3947 74.777C38.4338 74.7166 38.4593 74.6484 38.4694 74.5771C38.4694 74.4848 38.4079 74.4453 38.2629 74.4453H38.0058V74.3904H39.0581V74.4453C38.7 74.4453 38.6188 74.5112 38.4738 74.7704L37.1842 77.1101L36.8371 79.1005H37.3468V79.1532H35.6903V79.1005H36.189L36.5427 77.1101L35.9034 74.4475H35.53L35.5256 74.3904Z" fill="black"/>
<path d="M40.0357 77.8527C40.0357 76.8026 40.7278 75.8557 41.7603 75.8557C42.5599 75.8557 43.0125 76.3412 43.0125 77.187C43.0125 78.2591 42.3271 79.2191 41.2945 79.2191C40.5015 79.2191 40.0357 78.7182 40.0357 77.8527ZM42.3534 76.908C42.3534 76.2885 42.2062 75.9084 41.7471 75.9084C41.0353 75.9084 40.6948 77.1804 40.6948 78.1668C40.6948 78.7863 40.8486 79.1642 41.3077 79.1642C42.0261 79.1642 42.3534 77.8944 42.3534 76.908Z" fill="black"/>
<path d="M46.422 75.9238L46.0442 78.0657C46.0013 78.2741 45.9763 78.4858 45.9695 78.6984C45.9695 78.9709 46.0771 79.0851 46.2968 79.0851C46.5626 79.0851 46.835 78.9181 47.1558 78.3997L47.303 78.1536L47.694 75.9238H48.3311L47.8456 78.6853C47.8268 78.7796 47.8135 78.875 47.8061 78.9709C47.8061 79.0521 47.8456 79.0983 47.9511 79.0983H48.1971V79.151H47.5534C47.2788 79.151 47.1931 79.0587 47.1931 78.9313C47.1931 78.8918 47.2063 78.8325 47.2986 78.2986L47.2063 78.4524C46.8263 79.0851 46.4528 79.2257 46.0617 79.2257C45.6707 79.2257 45.3829 79.0587 45.3829 78.5183C45.3879 78.3709 45.4034 78.2241 45.429 78.0789L45.8025 75.9897H45.3829L45.3961 75.937L46.422 75.9238Z" fill="black"/>
<path d="M51.666 75.9238L51.5715 76.8487H51.5847C51.8791 76.0424 52.1383 75.8557 52.4898 75.8557C52.8413 75.8557 52.9973 76.0227 52.9973 76.2951C52.9973 76.662 52.6502 76.8948 52.224 76.941L52.2108 76.9212C52.2988 76.8498 52.3693 76.7593 52.4169 76.6565C52.4645 76.5536 52.4879 76.4413 52.4854 76.328C52.4854 76.183 52.4173 76.0622 52.2657 76.0622C52.046 76.0622 51.8681 76.2555 51.5935 76.9937L51.2156 79.151H50.5829L51.1409 75.9765H50.7213L50.7367 75.9238H51.666Z" fill="black"/>
<path d="M59.5725 75.8557C60.1239 75.8557 60.5237 76.0161 60.5237 76.3676C60.5237 76.7191 60.1041 76.8355 59.9372 76.8421L59.924 76.8223C59.9847 76.7667 60.0328 76.6987 60.0651 76.6229C60.0973 76.5471 60.1128 76.4653 60.1107 76.383C60.1107 76.1633 59.9921 75.915 59.5659 75.915C59.4749 75.9059 59.3829 75.9163 59.2962 75.9456C59.2095 75.9748 59.1301 76.0222 59.0631 76.0846C58.9962 76.1469 58.9433 76.2229 58.908 76.3073C58.8728 76.3917 58.8559 76.4826 58.8585 76.5741C58.8585 76.8619 59.0189 77.0552 59.4912 77.2947C60.0382 77.5803 60.2711 77.8065 60.2711 78.2261C60.2711 78.7995 59.7724 79.2257 59.0057 79.2257C58.3005 79.2257 57.9732 78.9709 57.9732 78.6589C57.9732 78.347 58.3005 78.1932 58.5993 78.1932L58.619 78.2064C58.5497 78.2585 58.4946 78.3274 58.4589 78.4065C58.4232 78.4856 58.408 78.5724 58.4147 78.6589C58.4147 78.9116 58.5465 79.1708 59.0189 79.1708C59.4912 79.1708 59.7394 78.9116 59.7394 78.5315C59.7394 78.2591 59.6186 78.0724 59.1265 77.8197C58.5861 77.5539 58.3598 77.321 58.3598 76.8882C58.3598 76.2951 58.8453 75.8557 59.5725 75.8557Z" fill="black"/>
<path d="M63.1973 79.151H62.5646L63.4302 74.2125H63.0106L63.0238 74.1575H64.0673L63.6081 76.7608L63.696 76.629C64.0827 76.0029 64.4605 75.8557 64.8538 75.8557C65.247 75.8557 65.5326 76.0227 65.5326 76.5609C65.531 76.7085 65.5155 76.8556 65.4865 77.0003L65.1877 78.6787C65.17 78.7731 65.1583 78.8684 65.1525 78.9643C65.1525 79.0456 65.1877 79.0917 65.2997 79.0917H65.5458V79.1444H64.8867C64.6209 79.1444 64.5352 79.0522 64.5352 78.9247C64.5404 78.8642 64.5492 78.8041 64.5616 78.7446L64.8604 77.0069C64.902 76.799 64.9269 76.5882 64.935 76.3764C64.935 76.1018 64.8274 75.9897 64.6077 75.9897C64.3419 75.9897 64.0629 76.1545 63.729 76.6751L63.5752 76.9212L63.1973 79.151Z" fill="black"/>
<path d="M67.9316 77.8527C67.9316 76.8026 68.6236 75.8557 69.6561 75.8557C70.4558 75.8557 70.9083 76.3412 70.9083 77.187C70.9083 78.2591 70.2229 79.2191 69.1904 79.2191C68.3995 79.2191 67.9316 78.7182 67.9316 77.8527ZM70.2493 76.908C70.2493 76.2885 70.1021 75.9084 69.6429 75.9084C68.9312 75.9084 68.5906 77.1804 68.5906 78.1668C68.5906 78.7863 68.7444 79.1642 69.2036 79.1642C69.9219 79.1642 70.2493 77.8944 70.2493 76.908Z" fill="black"/>
<path d="M73.3403 75.9238H73.415C73.8543 75.9238 74.1597 75.5965 74.3992 75.1176H74.4607L74.3201 75.9238H74.9791L74.9659 75.9765H74.3069L73.9071 78.2657C73.8878 78.3826 73.8768 78.5008 73.8741 78.6194C73.8741 78.9247 73.9861 79.0719 74.208 79.0719C74.2761 79.0737 74.3435 79.0582 74.4039 79.0266C74.4642 78.9951 74.5155 78.9487 74.5529 78.8918L74.5859 78.9116C74.5106 79.014 74.4108 79.0958 74.2957 79.1495C74.1805 79.2033 74.0537 79.2272 73.9268 79.2191C73.5138 79.2191 73.2678 78.9797 73.2678 78.5249C73.2681 78.4337 73.2747 78.3427 73.2875 78.2525L73.6874 75.9765H73.3359L73.3403 75.9238Z" fill="black"/>
<path d="M80.948 79.2191C80.3153 79.2191 79.9902 78.7665 79.9902 78.0723C79.9902 76.9937 80.5614 75.8557 81.6269 75.8557C81.765 75.8443 81.9034 75.8744 82.0243 75.9421C82.1452 76.0098 82.2432 76.112 82.3057 76.2357L82.365 75.9238H82.9911L82.5122 78.6853C82.4933 78.7796 82.4801 78.8749 82.4726 78.9708C82.4726 79.0521 82.5056 79.0983 82.6132 79.0983H82.8593V79.151H82.2068C81.9256 79.151 81.8663 79.0587 81.8663 78.9313C81.8776 78.7617 81.9034 78.5934 81.9432 78.4282L81.8817 78.5688C81.8137 78.7613 81.687 78.9275 81.5195 79.0442C81.352 79.1608 81.1521 79.222 80.948 79.2191ZM81.1809 79.0785C81.3283 79.0579 81.4671 78.9963 81.5812 78.9008C81.6954 78.8052 81.7805 78.6796 81.8268 78.5381L81.9674 78.1932L82.2859 76.35C82.2514 76.2347 82.1801 76.1338 82.0829 76.0628C81.9858 75.9918 81.868 75.9546 81.7477 75.9567C80.9085 75.9567 80.6361 77.3342 80.6361 78.1536C80.6361 78.6193 80.6888 79.0873 81.1809 79.0873V79.0785Z" fill="black"/>
<path d="M85.3989 75.9238H85.4714C85.9107 75.9238 86.2161 75.5965 86.4578 75.1176H86.5171L86.3765 75.9238H87.0355L87.0224 75.9765H86.3633L85.9635 78.2657C85.9442 78.3826 85.9332 78.5008 85.9305 78.6194C85.9305 78.9247 86.0448 79.0719 86.2644 79.0719C86.3325 79.0737 86.3999 79.0582 86.4603 79.0266C86.5207 78.9951 86.572 78.9487 86.6094 78.8918L86.6423 78.9116C86.5672 79.0141 86.4674 79.0961 86.3522 79.1498C86.237 79.2036 86.1101 79.2274 85.9832 79.2191C85.5702 79.2191 85.3242 78.9797 85.3242 78.5249C85.3245 78.4337 85.3311 78.3427 85.344 78.2525L85.7438 75.9765H85.3923L85.3989 75.9238Z" fill="black"/>
<path d="M93.0044 79.2191C92.3717 79.2191 92.0466 78.7665 92.0466 78.0723C92.0466 76.9937 92.6178 75.8557 93.6833 75.8557C93.8214 75.8443 93.9598 75.8744 94.0807 75.9421C94.2016 76.0098 94.2996 76.112 94.3621 76.2357L94.4236 75.9238H95.0475L94.5686 78.6853C94.5498 78.7796 94.5366 78.8749 94.5291 78.9708C94.5291 79.0521 94.562 79.0983 94.6697 79.0983H94.9157V79.151H94.2698C93.9908 79.151 93.9293 79.0587 93.9293 78.9313C93.9384 78.7657 93.9612 78.6011 93.9974 78.4392L93.9359 78.5798C93.8665 78.77 93.7394 78.9339 93.5724 79.0484C93.4055 79.163 93.2069 79.2227 93.0044 79.2191ZM93.2373 79.0785C93.3848 79.0581 93.5237 78.9967 93.6379 78.9011C93.7521 78.8055 93.8371 78.6797 93.8832 78.5381L94.0238 78.1932L94.3423 76.35C94.3078 76.2347 94.2365 76.1338 94.1394 76.0628C94.0422 75.9918 93.9244 75.9546 93.8041 75.9567C92.9649 75.9567 92.6925 77.3342 92.6925 78.1536C92.6925 78.6193 92.7452 79.0873 93.2373 79.0873V79.0785Z" fill="black"/>
<path d="M101.205 78.8259L100.904 80.5504H100.272L101.071 75.9765H100.652L100.665 75.9238H101.715L101.581 76.6554L101.649 76.5016C101.724 76.3131 101.853 76.1511 102.02 76.0362C102.187 75.9212 102.384 75.8584 102.587 75.8557C103.259 75.8557 103.532 76.3083 103.532 77.0003C103.532 78.0789 102.961 79.2191 101.895 79.2191C101.754 79.2298 101.613 79.1981 101.49 79.128C101.367 79.0579 101.268 78.9527 101.205 78.8259ZM101.537 76.9014L101.225 78.7116C101.258 78.8299 101.33 78.9339 101.429 79.0074C101.527 79.0809 101.647 79.1198 101.77 79.1181C102.609 79.1181 102.884 77.7736 102.884 76.9212C102.884 76.4093 102.809 75.9831 102.357 75.9831C102.208 76.0059 102.068 76.0685 101.952 76.1645C101.836 76.2604 101.748 76.386 101.697 76.528L101.537 76.9014Z" fill="black"/>
<path d="M108.051 78.3536H108.11C108.044 78.7929 107.647 79.2191 106.939 79.2191C106.232 79.2191 105.755 78.7797 105.755 77.9142C105.755 76.7542 106.447 75.8557 107.451 75.8557C108.132 75.8557 108.444 76.1018 108.444 76.495C108.444 77.1343 107.745 77.4462 106.893 77.4462H106.647V77.4001H106.886C107.572 77.4001 107.877 76.9476 107.877 76.3961C107.877 76.1281 107.785 75.9084 107.438 75.9084C106.713 75.9084 106.408 76.8817 106.408 77.8263C106.408 78.5249 106.594 79.0785 107.24 79.0785C107.439 79.0731 107.63 78.9973 107.778 78.8646C107.927 78.7319 108.023 78.5508 108.051 78.3536Z" fill="black"/>
<path d="M111.676 75.9238L111.581 76.8487H111.601C111.893 76.0424 112.152 75.8557 112.506 75.8557C112.86 75.8557 113.011 76.0227 113.011 76.2951C113.011 76.662 112.666 76.8948 112.24 76.941L112.225 76.9212C112.313 76.8498 112.383 76.7593 112.431 76.6565C112.479 76.5536 112.502 76.4413 112.499 76.328C112.499 76.183 112.431 76.0622 112.28 76.0622C112.06 76.0622 111.88 76.2555 111.608 76.9937L111.227 79.151H110.595L111.155 75.9765H110.722L110.735 75.9238H111.676Z" fill="black"/>
<path d="M114.237 80.6251L114.25 80.5724C114.69 80.4845 114.936 80.0517 115.041 79.452L115.654 75.9853H115.136L115.149 75.9326H115.667C115.788 75.2735 116.348 74.1751 117.3 74.1751C117.645 74.1751 117.926 74.2893 117.926 74.542C117.926 74.9023 117.486 75.1286 117.113 75.1286L117.1 75.1088C117.206 75.0445 117.294 74.9535 117.354 74.8449C117.415 74.7362 117.446 74.6136 117.445 74.4893C117.445 74.3618 117.398 74.2366 117.225 74.2366C116.645 74.2366 116.399 75.3219 116.291 75.9414H116.917L116.904 75.9941H116.285L115.713 79.2213C115.555 80.0759 115.046 80.5241 114.237 80.6251Z" fill="black"/>
<path d="M121.001 78.3536H121.061C120.995 78.7929 120.595 79.2191 119.89 79.2191C119.185 79.2191 118.703 78.7797 118.703 77.9142C118.703 76.7542 119.395 75.8557 120.402 75.8557C121.08 75.8557 121.395 76.1018 121.395 76.495C121.395 77.1343 120.694 77.4462 119.844 77.4462H119.595V77.4001H119.835C120.52 77.4001 120.828 76.9476 120.828 76.3961C120.828 76.1281 120.733 75.9084 120.388 75.9084C119.663 75.9084 119.356 76.8817 119.356 77.8263C119.356 78.5249 119.543 79.0785 120.189 79.0785C120.388 79.0728 120.578 78.9969 120.727 78.8643C120.876 78.7317 120.973 78.5508 121.001 78.3536Z" fill="black"/>
<path d="M125.61 78.3536H125.661C125.615 78.6071 125.478 78.8352 125.276 78.9946C125.073 79.1541 124.82 79.2339 124.562 79.2191C123.877 79.2191 123.418 78.7797 123.418 77.9142C123.418 76.7806 124.169 75.8557 125.136 75.8557C125.72 75.8557 126.015 76.0754 126.015 76.4291C126.015 76.8223 125.694 77.0266 125.29 77.0684L125.274 77.0486C125.447 76.8643 125.541 76.62 125.536 76.3676C125.536 76.1215 125.468 75.9084 125.136 75.9084C124.396 75.9084 124.077 76.8817 124.077 77.8263C124.077 78.5315 124.283 79.0851 124.841 79.0851C125.034 79.0692 125.215 78.988 125.355 78.8549C125.495 78.7219 125.585 78.5449 125.61 78.3536Z" fill="black"/>
<path d="M128.262 75.9238H128.337C128.776 75.9238 129.081 75.5965 129.321 75.1176H129.38L129.242 75.9238H129.901L129.888 75.9765H129.229L128.829 78.2657C128.809 78.3826 128.798 78.5008 128.796 78.6194C128.796 78.9247 128.908 79.0719 129.128 79.0719C129.196 79.0739 129.264 79.0584 129.324 79.0269C129.385 78.9954 129.437 78.9489 129.475 78.8918L129.508 78.9116C129.432 79.014 129.333 79.0958 129.217 79.1495C129.102 79.2033 128.975 79.2272 128.849 79.2191C128.436 79.2191 128.189 78.9797 128.189 78.5249C128.19 78.4337 128.196 78.3427 128.209 78.2525L128.609 75.9765H128.255L128.262 75.9238Z" fill="black"/>
<path d="M135.766 74.2125H135.349L135.362 74.1575H136.408L135.615 78.6853C135.597 78.7795 135.586 78.875 135.582 78.9709C135.582 79.0522 135.615 79.0983 135.723 79.0983H135.969V79.151H135.31C135.044 79.151 134.958 79.0587 134.958 78.9313C134.96 78.8709 134.967 78.8107 134.978 78.7512L135.766 74.2125Z" fill="black"/>
<path d="M139.062 78.6853C139.044 78.7796 139.033 78.875 139.029 78.9708C139.029 79.0521 139.062 79.0983 139.169 79.0983H139.415V79.151H138.756C138.491 79.151 138.403 79.0587 138.403 78.9313C138.408 78.8708 138.417 78.8106 138.429 78.7512L138.915 75.9831H138.497L138.51 75.9304H139.554L139.062 78.6853ZM139.062 74.8847C139.062 74.7704 139.106 74.6606 139.186 74.5786C139.265 74.4965 139.374 74.4487 139.488 74.4453C139.524 74.4422 139.561 74.4468 139.595 74.4588C139.63 74.4709 139.661 74.4901 139.687 74.5153C139.714 74.5404 139.735 74.5709 139.748 74.6046C139.762 74.6384 139.768 74.6747 139.767 74.7111C139.767 74.8276 139.721 74.9394 139.638 75.0218C139.556 75.1042 139.444 75.1505 139.328 75.1505C139.292 75.1517 139.257 75.1457 139.224 75.1328C139.192 75.1198 139.162 75.1003 139.137 75.0754C139.112 75.0504 139.092 75.0206 139.08 74.9878C139.067 74.955 139.061 74.9199 139.062 74.8847Z" fill="black"/>
<path d="M140.993 80.6251L141.006 80.5724C141.445 80.4845 141.691 80.0517 141.797 79.452L142.41 75.9853H141.891L141.905 75.9326H142.423C142.544 75.2735 143.104 74.1751 144.055 74.1751C144.4 74.1751 144.681 74.2893 144.681 74.542C144.681 74.9023 144.242 75.1286 143.869 75.1286L143.855 75.1088C143.964 75.0433 144.054 74.95 144.115 74.8384C144.176 74.7268 144.206 74.601 144.202 74.4739C144.202 74.3465 144.154 74.2212 143.983 74.2212C143.403 74.2212 143.157 75.3065 143.049 75.926H143.675L143.662 75.9787H143.043L142.471 79.2059C142.318 80.0759 141.812 80.5241 140.993 80.6251Z" fill="black"/>
<path d="M147.766 78.3536H147.825C147.759 78.7929 147.359 79.2191 146.654 79.2191C145.949 79.2191 145.468 78.7797 145.468 77.9142C145.468 76.7542 146.162 75.8557 147.166 75.8557C147.845 75.8557 148.159 76.1018 148.159 76.495C148.159 77.1343 147.46 77.4462 146.608 77.4462H146.36V77.4001H146.601C147.287 77.4001 147.592 76.9476 147.592 76.3961C147.592 76.1281 147.5 75.9084 147.153 75.9084C146.428 75.9084 146.123 76.8817 146.123 77.8263C146.123 78.5249 146.307 79.0785 146.953 79.0785C147.152 79.0732 147.343 78.9975 147.492 78.8648C147.641 78.7321 147.738 78.551 147.766 78.3536Z" fill="black"/>
<path d="M19.0622 25.8528V37.8828H18.77L13.9677 36.11C13.8183 37.2084 12.599 38.2519 10.1605 38.2519C3.98951 38.2519 0 34.0778 0 24.9125C0 15.4176 3.80498 11.0942 11.5665 11.0942C13.4866 11.0942 14.0402 11.5336 15.3715 11.5336C15.6971 11.5309 16.0205 11.4805 16.3315 11.3842H16.9598V18.4142H16.5908C16.0371 14.9409 14.8904 11.3842 11.538 11.3842C7.72199 11.3886 6.43023 15.1584 6.43023 24.9125C6.43023 34.5194 8.2778 37.8081 11.0854 37.8081C12.4892 37.8081 13.6711 36.8108 13.6711 35.8507V25.8747H11.2699V25.5782L19.0622 25.8528Z" fill="black"/>
<path d="M43.9044 42.7752V67.8569H45.9365V68.1513H35.5893V67.8569H37.6214V43.6518C37.6214 43.6518 21.013 41.3626 19.0644 26.0131C19.0534 25.9318 19.0447 25.7934 19.0644 25.8747C23.4208 43.186 43.9044 42.7752 43.9044 42.7752Z" fill="black"/>
<path d="M63.2259 61.2795C63.2259 65.9346 59.9745 68.5291 54.9503 68.5291C52.8808 68.5291 51.1805 67.936 49.814 67.936C49.36 67.9187 48.9071 67.9935 48.4827 68.1557H48.2257V61.5761H48.5947C49.0759 65.2712 51.89 68.226 54.9129 68.226C57.4635 68.226 58.3862 66.4883 58.3862 64.6429C58.3862 61.787 57.0197 60.2491 53.5091 57.3625C49.9985 54.4758 48.2367 52.1163 48.2367 48.4937C48.2367 43.9506 51.8944 41.3627 56.5496 41.3627C59.0255 41.3627 59.3945 41.9536 60.8357 41.9536C61.2897 41.971 61.7426 41.8963 62.167 41.7339H62.424V48.0148H62.055C60.9851 43.5793 59.4319 41.6966 56.7341 41.6966C54.1484 41.6966 53.0764 43.5442 53.0764 45.5016C53.0764 48.3465 54.4428 49.5284 57.9534 52.4107C61.464 55.293 63.2259 57.659 63.2259 61.2795Z" fill="black"/>
<path d="M82.2947 61.576V68.1513H65.001V67.8569H67.0331V42.0283H65.001V41.7405H75.3526V42.0349H73.3205V67.8569H76.0534C79.2674 67.8569 81.9278 64.6055 81.9278 61.576H82.2947Z" fill="black"/>
<path d="M88.38 68.1513H82.8747V67.8569C84.4257 67.8569 85.1287 67.5977 85.6449 66.0467L93.993 41.3627H94.696L104.413 67.8569H105.929V68.1513H96.0032V67.8569H97.7387C97.6328 67.3809 97.4971 66.912 97.3323 66.4531L94.8937 59.6538H88.2328L85.9788 66.3037C85.8933 66.5669 85.8431 66.8402 85.8295 67.1166C85.8295 67.5977 85.9042 67.8569 87.7144 67.8569H88.3734L88.38 68.1513ZM94.8081 59.3155L91.4842 49.9656L88.3427 59.3155H94.8081Z" fill="black"/>
<path d="M125.193 68.1513H124.343L108.745 43.3596V64.5682C108.745 66.7123 109.483 67.8635 111.887 67.8635V68.1579H105.977V67.8635C107.899 67.8635 108.38 66.7189 108.38 64.5682V42.0283H106.348V41.7405H115.18L124.822 57.0747V44.9479C124.822 42.8038 123.345 42.0283 121.307 42.0283V41.7405H127.59V42.0349C125.667 42.0349 125.189 43.1795 125.189 44.9545L125.193 68.1513Z" fill="black"/>
<path d="M128.458 41.7405H137.99C146.305 41.7405 150 45.5455 150 54.3022C150 62.8019 146.527 68.1579 138.73 68.1579H128.458V67.8635H130.494V42.0283H128.462L128.458 41.7405ZM136.77 42.0349V67.8569H138.73C142.425 67.8569 143.563 62.8304 143.563 54.2956C143.563 45.7278 142.269 42.0283 137.983 42.0283L136.77 42.0349Z" fill="black"/>
<path d="M82.2947 31.3054V37.8828H65.001V37.5862H67.0331V11.7598H65.001V11.4633H75.3526V11.7598H73.3205V37.5862H76.0534C79.2674 37.5862 81.9278 34.3349 81.9278 31.3054H82.2947Z" fill="black"/>
<path d="M100.105 11.3227V17.9001H99.7378C99.7378 14.8706 97.8156 11.6192 94.6016 11.6192H92.2333V24.9213H93.4174C95.3749 24.9213 96.5194 23.7372 97.519 22.039V28.098C96.4206 26.2504 95.3749 25.2157 93.4174 25.2157H92.2333V37.4456H94.9311V37.7422H83.9204V37.4456H85.9525V11.6192H83.9204V11.3227H100.105Z" fill="black"/>
<path d="M44.7722 23.5197C44.8323 23.4336 44.8666 23.3322 44.8711 23.2273C44.8755 23.1224 44.8499 23.0185 44.7973 22.9276C44.7447 22.8368 44.6673 22.7628 44.5741 22.7145C44.481 22.6661 44.3759 22.6454 44.2714 22.6547C44.1668 22.6639 44.0671 22.7029 43.9839 22.7669C43.9007 22.8309 43.8375 22.9173 43.8017 23.016C43.766 23.1147 43.7591 23.2216 43.782 23.324C43.8048 23.4265 43.8565 23.5203 43.9308 23.5944C44.053 23.6943 44.2095 23.7425 44.3667 23.7285C44.524 23.7146 44.6695 23.6396 44.7722 23.5197Z" fill="black"/>
<path d="M46.4989 26.949C46.7867 27.239 47.4018 27.0918 47.872 26.6195C48.3421 26.1471 48.4893 25.5342 48.2015 25.2464C47.9137 24.9586 47.2986 25.1058 46.8285 25.5759C46.3583 26.0461 46.2089 26.6612 46.4989 26.949Z" fill="black"/>
<path d="M50.2468 28.9987C49.4493 29.7961 49.1593 30.7979 49.5987 31.2373C50.0381 31.6767 51.0421 31.3867 51.8395 30.5782C52.637 29.7698 52.927 28.779 52.4876 28.3396C52.0482 27.9002 51.0442 28.199 50.2468 28.9987Z" fill="black"/>
<path d="M47.8764 34.0998C48.7837 33.4298 49.2187 32.4829 48.8496 31.982C48.4805 31.4811 47.4458 31.6195 46.5385 32.2896C45.6312 32.9596 45.1962 33.9065 45.5653 34.4074C45.9343 34.9083 46.9691 34.7699 47.8764 34.0998Z" fill="black"/>
<path d="M44.3987 35.0093C44.0912 34.4689 43.0476 34.4843 42.0678 35.0423C41.088 35.6003 40.5432 36.4922 40.8508 37.0326C41.1583 37.5731 42.2019 37.5555 43.1817 36.9975C44.1615 36.4395 44.7063 35.5497 44.3987 35.0093Z" fill="black"/>
<path d="M53.5179 25.3101C52.8479 26.2174 52.7117 27.2522 53.2104 27.6212C53.7091 27.9903 54.6603 27.5553 55.3281 26.648C55.996 25.7407 56.1366 24.706 55.6357 24.3369C55.1348 23.9678 54.188 24.4028 53.5179 25.3101Z" fill="black"/>
<path d="M56.2706 20.8395C55.7126 21.8193 55.6972 22.8628 56.2376 23.1704C56.7781 23.478 57.6678 22.9331 58.2258 21.9533C58.7838 20.9735 58.7992 19.93 58.261 19.6225C57.7227 19.3149 56.8308 19.8597 56.2706 20.8395Z" fill="black"/>
<path d="M48.0323 30.2289C48.7112 29.6555 48.977 28.8537 48.6255 28.4363C48.274 28.0189 47.4392 28.1485 46.7604 28.7197C46.0815 29.2909 45.8157 30.0949 46.1672 30.5101C46.5187 30.9253 47.3535 30.8001 48.0323 30.2289Z" fill="black"/>
<path d="M44.1571 33.1332C44.8908 32.6301 45.2357 31.859 44.926 31.4108C44.6162 30.9627 43.7748 31.0044 43.0433 31.5075C42.3117 32.0106 41.9668 32.7795 42.2743 33.2298C42.5819 33.6802 43.4211 33.6363 44.1571 33.1332Z" fill="black"/>
<path d="M40.82 33.8318C40.6003 33.3309 39.7677 33.2145 38.9527 33.5682C38.1376 33.9219 37.6543 34.6139 37.8696 35.106C38.0849 35.5981 38.9241 35.7233 39.7392 35.3696C40.5542 35.0159 41.0375 34.3327 40.82 33.8318Z" fill="black"/>
<path d="M50.0491 25.431C49.4779 26.1098 49.3505 26.9446 49.7679 27.2961C50.1853 27.6476 50.9849 27.3818 51.5583 26.7029C52.1317 26.0241 52.2569 25.1893 51.8417 24.8378C51.4265 24.4863 50.6224 24.7521 50.0491 25.431Z" fill="black"/>
<path d="M54.4626 22.8233C54.9657 22.0917 55.0074 21.2481 54.5592 20.9406C54.1111 20.633 53.3378 20.9757 52.8369 21.7095C52.336 22.4432 52.2899 23.2846 52.7402 23.5922C53.1906 23.8997 53.9595 23.557 54.4626 22.8233Z" fill="black"/>
<path d="M54.8998 17.6233C54.5461 18.4383 54.6647 19.2731 55.1634 19.4906C55.6621 19.7081 56.3541 19.2226 56.7012 18.4098C57.0483 17.5969 56.9384 16.7577 56.4376 16.5402C55.9367 16.3227 55.2534 16.8082 54.8998 17.6233Z" fill="black"/>
<path d="M44.4492 29.471C44.9853 29.0756 45.2225 28.4912 44.9809 28.1529C44.7392 27.8146 44.1021 27.8783 43.5727 28.2737C43.0432 28.6691 42.7994 29.2557 43.0432 29.5918C43.2871 29.928 43.9154 29.8774 44.4492 29.471Z" fill="black"/>
<path d="M40.6421 31.8546C41.2418 31.569 41.5867 31.0374 41.411 30.6705C41.2352 30.3036 40.6047 30.2311 40.005 30.5211C39.4052 30.8111 39.0603 31.3384 39.2361 31.7052C39.4118 32.0721 40.0335 32.1314 40.6421 31.8546Z" fill="black"/>
<path d="M36.1429 32.1116C35.4992 32.2852 35.0642 32.7443 35.1697 33.1376C35.2751 33.5308 35.8815 33.711 36.5251 33.5396C37.1688 33.3682 37.6016 32.9069 37.4962 32.5137C37.3907 32.1204 36.7844 31.9403 36.1429 32.1116Z" fill="black"/>
<path d="M31.8392 33.1442C31.1802 33.276 30.7232 33.7066 30.8045 34.1042C30.8858 34.5018 31.4789 34.7215 32.1226 34.5919C32.7663 34.4623 33.2364 34.0295 33.1573 33.6297C33.0783 33.2298 32.4917 33.0123 31.8392 33.1442Z" fill="black"/>
<path d="M50.7477 23.1704C51.1409 22.6344 51.187 22.0039 50.8685 21.7622C50.5499 21.5205 49.9524 21.7622 49.5504 22.2938C49.1483 22.8255 49.1 23.4582 49.4295 23.6998C49.7591 23.9415 50.3566 23.7042 50.7477 23.1704Z" fill="black"/>
<path d="M53.1247 19.3544C53.4125 18.7547 53.3444 18.1264 52.9775 17.9506C52.6106 17.7749 52.079 18.1198 51.7934 18.7195C51.5078 19.3193 51.5737 19.9476 51.9406 20.1233C52.3074 20.2991 52.8391 19.9542 53.1247 19.3544Z" fill="black"/>
<path d="M53.7947 16.2173C54.188 16.3228 54.6471 15.8878 54.8185 15.2441C54.9898 14.6004 54.8185 13.9963 54.4164 13.8908C54.0144 13.7854 53.5641 14.2203 53.3927 14.8618C53.2213 15.5033 53.3993 16.1119 53.7947 16.2173Z" fill="black"/>
<path d="M54.9085 11.8851C55.3084 11.9663 55.739 11.5028 55.8708 10.8503C56.0026 10.1979 55.7851 9.60471 55.3853 9.53221C54.9854 9.45972 54.5548 9.91447 54.423 10.5669C54.2912 11.2194 54.5087 11.806 54.9085 11.8851Z" fill="black"/>
<path d="M47.1778 20.5957C47.2301 20.5047 47.2554 20.4007 47.2507 20.2959C47.246 20.1911 47.2115 20.0898 47.1512 20.0039C47.091 19.918 47.0074 19.8511 46.9105 19.8111C46.8135 19.771 46.7071 19.7594 46.6038 19.7776C46.5005 19.7959 46.4046 19.8433 46.3272 19.9142C46.2499 19.9851 46.1944 20.0766 46.1672 20.1779C46.14 20.2792 46.1424 20.3862 46.1739 20.4863C46.2054 20.5864 46.2648 20.6754 46.3451 20.7428C46.4754 20.8327 46.6358 20.8676 46.7916 20.8401C46.9475 20.8125 47.0862 20.7247 47.1778 20.5957Z" fill="black"/>
<path d="M49.2494 17.4871C49.2958 17.393 49.3144 17.2876 49.3031 17.1833C49.2917 17.079 49.2508 16.9801 49.1852 16.8983C49.1196 16.8164 49.032 16.755 48.9327 16.7211C48.8334 16.6873 48.7265 16.6825 48.6245 16.7073C48.5226 16.7321 48.4299 16.7855 48.3572 16.8612C48.2845 16.9368 48.235 17.0317 48.2143 17.1345C48.1936 17.2374 48.2027 17.344 48.2406 17.4419C48.2784 17.5397 48.3433 17.6248 48.4278 17.687C48.5634 17.769 48.7259 17.7939 48.8798 17.7565C49.0338 17.719 49.1666 17.6222 49.2494 17.4871Z" fill="black"/>
<path d="M49.8272 14.3434C49.9309 14.4304 50.059 14.4834 50.1939 14.4951C50.3289 14.5068 50.4642 14.4766 50.5813 14.4087C50.6985 14.3408 50.7919 14.2384 50.8489 14.1155C50.9058 13.9926 50.9235 13.8551 50.8995 13.7218C50.8755 13.5885 50.811 13.4658 50.7148 13.3705C50.6186 13.2751 50.4954 13.2117 50.3619 13.1889C50.2284 13.166 50.0911 13.1849 49.9687 13.2429C49.8463 13.3009 49.7447 13.3952 49.6778 13.5129C49.59 13.6437 49.5565 13.8034 49.5844 13.9584C49.6122 14.1134 49.6993 14.2514 49.8272 14.3434Z" fill="black"/>
<path d="M50.7015 10.7757C50.8111 10.8552 50.9425 10.8991 51.0778 10.9013C51.2132 10.9036 51.3459 10.8641 51.4581 10.7882C51.5702 10.7123 51.6562 10.6038 51.7045 10.4773C51.7528 10.3508 51.7609 10.2126 51.7278 10.0813C51.6947 9.95002 51.622 9.83212 51.5196 9.74362C51.4172 9.65512 51.2899 9.60031 51.1553 9.58665C51.0206 9.57299 50.885 9.60113 50.7668 9.66725C50.6487 9.73338 50.5538 9.83428 50.495 9.95623C50.4155 10.0927 50.3926 10.2549 50.4312 10.4081C50.4698 10.5612 50.5668 10.6932 50.7015 10.7757Z" fill="black"/>
<path d="M51.1475 7.07614C51.3053 7.07734 51.4572 7.01655 51.5706 6.90685C51.684 6.79714 51.7498 6.6473 51.7538 6.48957C51.7767 6.41204 51.7823 6.33041 51.7701 6.25048C51.758 6.17056 51.7284 6.09428 51.6835 6.02706C51.6385 5.95984 51.5794 5.90332 51.5102 5.8615C51.441 5.81968 51.3635 5.79359 51.2831 5.78508C51.2027 5.77656 51.1214 5.78583 51.045 5.81223C50.9685 5.83862 50.8989 5.8815 50.8409 5.93782C50.7829 5.99414 50.7379 6.06253 50.7093 6.13814C50.6807 6.21374 50.669 6.29472 50.6752 6.37534C50.6461 6.53078 50.6793 6.69143 50.7677 6.82256C50.8561 6.9537 50.9925 7.04479 51.1475 7.07614Z" fill="black"/>
<path d="M41.8943 25.8791C41.9619 25.7988 42.0052 25.7008 42.0191 25.5966C42.0329 25.4925 42.0168 25.3866 41.9724 25.2913C41.9281 25.1961 41.8575 25.1155 41.769 25.059C41.6804 25.0025 41.5775 24.9725 41.4725 24.9725C41.3674 24.9725 41.2646 25.0025 41.176 25.059C41.0874 25.1155 41.0169 25.1961 40.9725 25.2913C40.9282 25.3866 40.912 25.4925 40.9259 25.5966C40.9397 25.7008 40.983 25.7988 41.0507 25.8791C41.1633 25.9897 41.3147 26.0516 41.4725 26.0516C41.6303 26.0516 41.7817 25.9897 41.8943 25.8791Z" fill="black"/>
<path d="M38.7857 27.9508C38.8576 27.875 38.9063 27.7802 38.9262 27.6777C38.9461 27.5752 38.9364 27.4691 38.8981 27.3719C38.8599 27.2747 38.7947 27.1905 38.7103 27.129C38.6258 27.0675 38.5256 27.0314 38.4214 27.0249C38.3172 27.0183 38.2132 27.0417 38.1218 27.0921C38.0303 27.1426 37.9551 27.218 37.9051 27.3097C37.855 27.4013 37.8321 27.5054 37.839 27.6096C37.846 27.7138 37.8825 27.8139 37.9443 27.898C38.05 28.0148 38.1971 28.0856 38.3543 28.0954C38.5115 28.1053 38.6663 28.0534 38.7857 27.9508Z" fill="black"/>
<path d="M35.642 28.5308C35.597 28.403 35.5138 28.2922 35.4036 28.2134C35.2934 28.1347 35.1617 28.0918 35.0262 28.0905C34.8908 28.0893 34.7583 28.1299 34.6467 28.2067C34.5351 28.2834 34.4499 28.3927 34.4027 28.5197C34.3554 28.6466 34.3484 28.785 34.3826 28.9161C34.4169 29.0471 34.4906 29.1644 34.5939 29.2521C34.6971 29.3397 34.8249 29.3934 34.9598 29.4058C35.0946 29.4183 35.2301 29.3889 35.3476 29.3216C35.4906 29.2547 35.6015 29.1343 35.6566 28.9864C35.7117 28.8385 35.7064 28.6748 35.642 28.5308Z" fill="black"/>
<path d="M31.725 30.174C31.8101 30.1127 31.876 30.0283 31.9148 29.9309C31.9537 29.8334 31.9639 29.7269 31.9444 29.6238C31.9248 29.5208 31.8763 29.4254 31.8044 29.349C31.7326 29.2725 31.6404 29.2182 31.5387 29.1923C31.4371 29.1664 31.3301 29.17 31.2304 29.2028C31.1308 29.2355 31.0425 29.296 30.976 29.3772C30.9096 29.4584 30.8676 29.5568 30.8551 29.661C30.8426 29.7651 30.8601 29.8707 30.9055 29.9653C30.9873 30.1008 31.1191 30.1987 31.2724 30.2378C31.4258 30.2768 31.5884 30.2539 31.725 30.174Z" fill="black"/>
<path d="M27.6805 29.3765C27.5797 29.4055 27.4892 29.4627 27.4197 29.5414C27.3502 29.62 27.3046 29.7169 27.2883 29.8205C27.2719 29.9242 27.2855 30.0304 27.3274 30.1266C27.3693 30.2228 27.4377 30.3051 27.5248 30.3637C27.6118 30.4224 27.7138 30.455 27.8187 30.4577C27.9236 30.4604 28.0271 30.4331 28.117 30.3791C28.207 30.325 28.2796 30.2464 28.3264 30.1525C28.3733 30.0586 28.3923 29.9532 28.3814 29.8489C28.3505 29.6936 28.2596 29.5568 28.1283 29.4683C27.997 29.3798 27.8361 29.3468 27.6805 29.3765Z" fill="black"/>
<path d="M44.737 26.2943C45.1083 25.956 45.205 25.4551 44.9567 25.1805C44.7085 24.9059 44.1988 24.9608 43.8275 25.2992C43.4563 25.6375 43.3596 26.1362 43.6079 26.413C43.8561 26.6898 44.3768 26.6349 44.737 26.2943Z" fill="black"/>
<path d="M41.4461 28.7504C41.8504 28.4517 41.9997 27.9662 41.7779 27.6652C41.556 27.3642 41.0463 27.362 40.6421 27.6652C40.2379 27.9683 40.0885 28.4517 40.3104 28.7504C40.5322 29.0492 41.0397 29.0492 41.4461 28.7504Z" fill="black"/>
<path d="M38.3134 29.5523C38.1289 29.2294 37.6236 29.1678 37.1864 29.4161C36.7492 29.6643 36.5449 30.1301 36.7295 30.4552C36.914 30.7803 37.4193 30.8419 37.8564 30.5914C38.2936 30.341 38.4979 29.8774 38.3134 29.5523Z" fill="black"/>
<path d="M33.4913 30.6573C33.0211 30.8353 32.7465 31.2636 32.8805 31.6129C33.0145 31.9622 33.5022 32.1007 33.979 31.9205C34.4557 31.7404 34.7237 31.3142 34.5897 30.9649C34.4557 30.6156 33.9614 30.4772 33.4913 30.6573Z" fill="black"/>
<path d="M29.6577 31.0835C29.1568 31.1362 28.779 31.4789 28.8207 31.8502C28.8625 32.2215 29.2974 32.4807 29.7983 32.428C30.2992 32.3753 30.6771 32.0325 30.6331 31.6613C30.5892 31.29 30.1498 31.0308 29.6577 31.0835Z" fill="black"/>
<path d="M46.6088 22.5113C46.2683 22.8826 46.2155 23.3901 46.4923 23.6405C46.7691 23.891 47.2656 23.7965 47.6061 23.4208C47.9467 23.0452 47.9994 22.5421 47.7248 22.2916C47.4502 22.0412 46.9493 22.1401 46.6088 22.5113Z" fill="black"/>
<path d="M50.0622 20.1343C50.361 19.7301 50.3588 19.2204 50.0622 18.9985C49.7657 18.7766 49.2758 18.926 48.977 19.3302C48.6782 19.7345 48.6804 20.2441 48.977 20.466C49.2736 20.6879 49.7635 20.5385 50.0622 20.1343Z" fill="black"/>
<path d="M50.7279 15.8746C50.4775 16.314 50.539 16.817 50.8641 17.0016C51.1892 17.1861 51.655 16.9818 51.9032 16.5446C52.1515 16.1074 52.0922 15.6022 51.767 15.4176C51.4419 15.2331 50.9674 15.4374 50.7279 15.8746Z" fill="black"/>
<path d="M52.2855 13.2735C52.6348 13.4053 53.0632 13.1329 53.2433 12.6628C53.4235 12.1926 53.2851 11.7027 52.9358 11.5643C52.5864 11.4259 52.1581 11.7049 51.9779 12.1751C51.7978 12.6452 51.9252 13.1395 52.2855 13.2735Z" fill="black"/>
<path d="M52.9709 9.31692C53.3422 9.35427 53.6871 8.9808 53.7398 8.47991C53.7925 7.97903 53.5333 7.54185 53.162 7.50231C52.7908 7.46276 52.4458 7.83843 52.3931 8.33931C52.3404 8.8402 52.5996 9.27738 52.9709 9.31692Z" fill="black"/>
<path d="M54.5482 5.71187C51.8227 2.98864 48.3509 1.13461 44.5719 0.384162C40.7928 -0.366289 36.8761 0.020529 33.3168 1.49572C29.7575 2.9709 26.7155 5.46823 24.5753 8.672C22.4351 11.8758 21.2928 15.6422 21.2928 19.495C21.2928 23.3479 22.4351 27.1143 24.5753 30.318C26.7155 33.5218 29.7575 36.0191 33.3168 37.4943C36.8761 38.9695 40.7928 39.3563 44.5719 38.6059C48.3509 37.8554 51.8227 36.0014 54.5482 33.2782C58.1983 29.6197 60.2481 24.6629 60.2481 19.495C60.2481 14.3272 58.1983 9.3703 54.5482 5.71187ZM40.005 37.6236C40.039 37.5022 40.039 37.3737 40.005 37.2523C39.8139 36.657 38.7879 36.4592 37.7158 36.8129C37.4092 36.9098 37.1177 37.0496 36.8503 37.2281C36.3384 37.1161 35.8309 36.9887 35.3278 36.8305C36.0111 36.5515 36.4417 36.0265 36.3186 35.5673C36.178 35.0401 35.3674 34.8006 34.5084 35.0291C33.8494 35.2048 33.3616 35.6069 33.2298 36.0199C30.5534 34.8074 28.2107 32.9644 26.4023 30.6486C24.5939 28.3328 23.3737 25.6131 22.8462 22.7226C22.3187 19.8321 22.4996 16.8568 23.3735 14.0515C24.2473 11.2462 25.788 8.69449 27.8637 6.61484C29.9394 4.53519 32.4881 2.98959 35.2918 2.11038C38.0954 1.23117 41.0703 1.04455 43.9618 1.5665C46.8534 2.08845 49.5753 3.30342 51.8946 5.10737C54.2139 6.91132 56.0614 9.2505 57.279 11.9246C56.8989 12.0828 56.5188 12.5595 56.3497 13.1812C56.13 14.0402 56.3607 14.8508 56.8879 14.9914C57.3273 15.1079 57.826 14.7168 58.1138 14.0819C58.2632 14.5674 58.3862 15.0595 58.4938 15.5538C58.2918 15.8351 58.1354 16.1465 58.0303 16.4765C57.6854 17.5552 57.8897 18.5811 58.4697 18.7723C58.6113 18.8083 58.7604 18.8015 58.8981 18.7525C58.9613 20.335 58.8187 21.919 58.4741 23.4648C58.1266 23.7653 57.8299 24.1199 57.5953 24.5149C56.9978 25.5144 56.8528 26.5953 57.1559 27.2939C57.101 27.4081 57.0527 27.5268 56.9956 27.641C56.2157 27.4653 55.1304 27.9508 54.3022 28.9284C53.3114 30.1037 53.0785 31.5361 53.7442 32.1951L53.6937 32.25C53.0346 31.58 51.6001 31.8107 50.4247 32.808C49.4054 33.6714 48.9155 34.8182 49.1593 35.6003C49.0759 35.6442 48.9858 35.6794 48.9023 35.7211C48.2125 35.352 47.0679 35.4707 46.009 36.1055C45.5434 36.3825 45.1355 36.7465 44.8073 37.1776C43.2332 37.5372 41.6184 37.6872 40.005 37.6236Z" fill="black"/>
</g>
<defs>
<clipPath id="clip0_2_7924">
<rect width="150" height="80.6163" fill="white"/>
</clipPath>
</defs>
</svg>
