<svg width="37" height="37" viewBox="0 0 37 37" fill="none" xmlns="http://www.w3.org/2000/svg">
<path d="M14.8615 10.8921C14.0827 10.8921 13.3215 10.6612 12.674 10.2285C12.0264 9.79585 11.5218 9.18089 11.2237 8.46141C10.9257 7.74192 10.8477 6.95022 10.9997 6.18642C11.1516 5.42262 11.5266 4.72103 12.0773 4.17036C12.6279 3.61969 13.3295 3.24468 14.0933 3.09275C14.8571 2.94082 15.6488 3.0188 16.3683 3.31682C17.0878 3.61484 17.7028 4.11952 18.1354 4.76703C18.5681 5.41455 18.799 6.17583 18.799 6.95459C18.799 7.99888 18.3842 9.0004 17.6457 9.73882C16.9073 10.4772 15.9058 10.8921 14.8615 10.8921ZM14.8615 4.14209C14.3053 4.14209 13.7615 4.30704 13.299 4.61608C12.8365 4.92512 12.476 5.36438 12.2631 5.87829C12.0502 6.39221 11.9945 6.95771 12.1031 7.50328C12.2116 8.04885 12.4794 8.54999 12.8728 8.94333C13.2661 9.33666 13.7672 9.60453 14.3128 9.71305C14.8584 9.82157 15.4239 9.76587 15.9378 9.553C16.4517 9.34013 16.891 8.97965 17.2 8.51713C17.5091 8.05462 17.674 7.51085 17.674 6.95459C17.674 6.20867 17.3777 5.4933 16.8502 4.96585C16.3228 4.43841 15.6074 4.14209 14.8615 4.14209ZM6.42401 20.4546C6.42401 20.6038 6.48327 20.7469 6.58876 20.8523C6.69425 20.9578 6.83733 21.0171 6.98651 21.0171C11.7185 21.0171 14.0065 18.7066 16.0259 16.6676C16.5209 16.1655 16.9906 15.693 17.4799 15.2613C17.5728 15.1812 17.6684 15.108 17.7612 15.0377L20.1321 20.4897L14.5296 24.4905C14.4568 24.5437 14.3978 24.6137 14.3577 24.6944C14.3176 24.7752 14.2974 24.8644 14.299 24.9546V32.8296C14.299 32.9788 14.3583 33.1219 14.4638 33.2273C14.5693 33.3328 14.7123 33.3921 14.8615 33.3921C15.0107 33.3921 15.1538 33.3328 15.2593 33.2273C15.3647 33.1219 15.424 32.9788 15.424 32.8296V25.2443L20.5948 21.5515L25.5954 33.0532C25.6249 33.121 25.6674 33.1823 25.7205 33.2336C25.7737 33.285 25.8364 33.3253 25.9052 33.3524C25.9739 33.3795 26.0473 33.3928 26.1212 33.3915C26.1951 33.3903 26.268 33.3744 26.3358 33.345C26.4036 33.3155 26.4649 33.273 26.5162 33.2199C26.5676 33.1667 26.6079 33.104 26.635 33.0352C26.6621 32.9665 26.6754 32.8931 26.6742 32.8192C26.6729 32.7453 26.6571 32.6724 26.6276 32.6046L18.7624 14.5174C22.939 13.0338 29.0281 18.6855 29.1012 18.7488C29.1554 18.7994 29.219 18.8388 29.2885 18.8648C29.3579 18.8909 29.4318 18.9029 29.5059 18.9004C29.58 18.8978 29.6529 18.8807 29.7204 18.85C29.7879 18.8193 29.8486 18.7756 29.8992 18.7214C29.9498 18.6672 29.9893 18.6036 30.0153 18.5341C30.0413 18.4647 30.0534 18.3908 30.0508 18.3167C30.0483 18.2426 30.0312 18.1697 30.0004 18.1022C29.9697 18.0347 29.926 17.9739 29.8718 17.9233C28.4657 16.6501 26.9159 15.5453 25.2537 14.6313C21.717 12.7272 18.7751 12.6541 16.7431 14.4176C16.2214 14.8718 15.7376 15.3597 15.2257 15.8758C13.271 17.8446 11.2489 19.8921 6.98651 19.8921C6.83733 19.8921 6.69425 19.9514 6.58876 20.0568C6.48327 20.1623 6.42401 20.3054 6.42401 20.4546Z" fill="black"/>
</svg>
