<svg width="49" height="49" viewBox="0 0 49 49" fill="none" xmlns="http://www.w3.org/2000/svg">
<path d="M39.2365 14.2365L44.2365 9.23645L39.2365 4.23645" stroke="black" stroke-width="4" stroke-linecap="round" stroke-linejoin="round"/>
<path d="M8.23645 36.2365C9.29732 36.2365 10.3147 36.6579 11.0649 37.408C11.815 38.1582 12.2365 39.1756 12.2365 40.2365C12.2365 41.2973 11.815 42.3147 11.0649 43.0649C10.3147 43.815 9.29732 44.2365 8.23645 44.2365C7.17558 44.2365 6.15817 43.815 5.40802 43.0649C4.65788 42.3147 4.23645 41.2973 4.23645 40.2365C4.23645 39.1756 4.65788 38.1582 5.40802 37.408C6.15817 36.6579 7.17558 36.2365 8.23645 36.2365Z" stroke="black" stroke-width="4" stroke-linejoin="round"/>
<path d="M12.2365 40.2365H20.2365C21.2973 40.2365 22.3147 39.815 23.0649 39.0649C23.815 38.3147 24.2365 37.2973 24.2365 36.2365V13.2365C24.2365 12.1756 24.6579 11.1582 25.408 10.408C26.1582 9.65788 27.1756 9.23645 28.2365 9.23645H44.2365" stroke="black" stroke-width="4" stroke-linecap="round" stroke-linejoin="round"/>
</svg>
