<svg width="49" height="49" viewBox="0 0 49 49" fill="none" xmlns="http://www.w3.org/2000/svg">
<g clip-path="url(#clip0_38_170)">
<path d="M40.5632 36.751C40.9726 36.7573 41.3792 36.6821 41.7592 36.5298C42.1393 36.3775 42.4853 36.1511 42.777 35.8638C43.0687 35.5766 43.3004 35.2341 43.4585 34.8564C43.6166 34.4787 43.698 34.0734 43.698 33.664C43.6979 33.2545 43.6164 32.8492 43.4582 32.4715C43.3 32.0939 43.0683 31.7515 42.7765 31.4643C42.4847 31.1771 42.1386 30.9508 41.7585 30.7986C41.3784 30.6463 40.9719 30.5713 40.5625 30.5777C39.7522 30.5904 38.9794 30.9213 38.4109 31.4988C37.8424 32.0764 37.5239 32.8543 37.524 33.6647C37.5241 34.4751 37.8428 35.2529 38.4114 35.8304C38.9801 36.4078 39.7529 36.7384 40.5632 36.751ZM46.7792 47.9455V41.8975C46.7792 39.7165 44.9875 37.9442 42.8042 37.9442H38.542C36.3587 37.9442 34.4087 39.7165 34.4087 41.8975V47.9455H46.78H46.7792ZM8.56297 36.4892C7.74443 36.4884 6.95966 36.1628 6.381 35.5839C5.80235 35.0049 5.47711 34.22 5.47672 33.4015C5.46766 32.9904 5.54078 32.5818 5.69181 32.1994C5.84284 31.817 6.06872 31.4687 6.3562 31.1748C6.64368 30.8809 6.98697 30.6474 7.36592 30.4879C7.74487 30.3285 8.15185 30.2464 8.56297 30.2464C8.97408 30.2464 9.38106 30.3285 9.76001 30.4879C10.139 30.6474 10.4823 30.8809 10.7697 31.1748C11.0572 31.4687 11.2831 31.817 11.4341 32.1994C11.5852 32.5818 11.6583 32.9904 11.6492 33.4015C11.649 34.2201 11.3238 35.0051 10.7451 35.5841C10.1665 36.1631 9.38157 36.4886 8.56297 36.4892ZM2.34997 47.9455V41.8975C2.34997 39.7165 4.14172 37.9442 6.32647 37.9442H10.5842C12.7712 37.9442 14.7182 39.7165 14.7182 41.8975V47.9455H2.34997ZM24.5687 36.7345C26.2937 36.7345 27.691 35.3477 27.691 33.6385C27.691 31.9292 26.2937 30.5417 24.5687 30.5417C22.8452 30.5417 21.448 31.9285 21.448 33.6385C21.448 35.3485 22.8445 36.7345 24.5687 36.7345ZM32.0875 47.9455L29.6305 41.2517C28.6465 37.8325 25.7807 37.9382 25.7807 37.9382H23.3485C23.3485 37.9382 20.4842 37.8332 19.4987 41.2517L17.0417 47.9455L32.0875 47.9455ZM24.5687 26.6335V19.3097L25.7845 18.094V25.414L44.1767 25.414V2.12796L25.7845 2.12796V14.0905L24.5687 15.3055V0.910706L45.388 0.910706V26.6327L24.5687 26.6335Z" fill="black"/>
<path d="M35.1594 7.13271C34.7364 7.11461 34.3366 6.93382 34.0436 6.62805C33.7507 6.32228 33.5871 5.91518 33.5871 5.49171C33.5871 5.06824 33.7507 4.66114 34.0436 4.35537C34.3366 4.0496 34.7364 3.8688 35.1594 3.85071C35.5947 3.85071 36.0121 4.0236 36.3198 4.33135C36.6275 4.63909 36.8004 5.05649 36.8004 5.49171C36.8004 5.92693 36.6275 6.34432 36.3198 6.65207C36.0121 6.95982 35.5947 7.13271 35.1594 7.13271ZM29.7407 13.9525C29.7407 13.9525 31.0869 9.37971 31.0892 9.37596C31.6254 7.59621 33.1269 7.64946 33.1269 7.64946L37.1889 7.64946C37.1889 7.64946 38.6927 7.59621 39.2282 9.37596L40.5744 13.9525C40.6023 14.0412 40.6122 14.1345 40.6035 14.2271C40.5949 14.3197 40.5679 14.4096 40.5241 14.4916C40.4803 14.5736 40.4206 14.6461 40.3485 14.7048C40.2764 14.7635 40.1933 14.8072 40.1041 14.8334C40.0149 14.8596 39.9214 14.8678 39.829 14.8575C39.7366 14.8471 39.6472 14.8185 39.566 14.7732C39.4848 14.7279 39.4134 14.6669 39.356 14.5937C39.2987 14.5205 39.2565 14.4366 39.2319 14.347L37.9464 9.97071L37.9434 9.97221L37.3704 9.97071V14.9507L39.6332 22.7162C39.6751 22.8593 39.6832 23.0102 39.6566 23.157C39.6301 23.3037 39.5698 23.4422 39.4804 23.5616C39.391 23.681 39.275 23.7779 39.1417 23.8446C39.0084 23.9114 38.8613 23.9462 38.7122 23.9462C38.2959 23.9462 37.9119 23.674 37.7889 23.2555L35.5539 15.5875H34.7627L32.5277 23.2555C32.4925 23.3766 32.4337 23.4895 32.3547 23.5879C32.2757 23.6862 32.1781 23.768 32.0675 23.8285C31.9568 23.8891 31.8353 23.9272 31.7099 23.9407C31.5845 23.9542 31.4577 23.9428 31.3367 23.9072C31.2156 23.8719 31.1027 23.813 31.0044 23.7341C30.9061 23.6551 30.8243 23.5575 30.7637 23.4469C30.7031 23.3363 30.6649 23.2148 30.6512 23.0895C30.6376 22.9641 30.6488 22.8373 30.6842 22.7162L32.9469 14.9545V9.97146L32.3739 9.97296L32.3709 9.97146L31.0839 14.3477C31.0316 14.5257 30.9107 14.6757 30.7479 14.7646C30.6672 14.8086 30.5787 14.8363 30.4873 14.8461C30.396 14.8559 30.3036 14.8476 30.2154 14.8217C30.1273 14.7958 30.0451 14.7528 29.9736 14.6951C29.902 14.6375 29.8426 14.5663 29.7986 14.4856C29.7545 14.405 29.7268 14.3165 29.717 14.2251C29.7072 14.1337 29.7155 14.0414 29.7414 13.9532L29.7407 13.9525ZM8.57719 13.2632C9.38274 13.2454 10.1493 12.9129 10.7128 12.3369C11.2762 11.7609 11.5917 10.9872 11.5917 10.1815C11.5917 9.3757 11.2762 8.60198 10.7128 8.02598C10.1493 7.44997 9.38274 7.11748 8.57719 7.09971C8.17238 7.09941 7.7715 7.17899 7.3975 7.33388C7.02349 7.48876 6.68373 7.71592 6.39766 8.00234C6.1116 8.28875 5.88485 8.62879 5.73042 9.00298C5.57598 9.37717 5.4969 9.77815 5.49769 10.183C5.49709 10.5876 5.57634 10.9883 5.73088 11.3622C5.88542 11.7362 6.11222 12.0759 6.39828 12.3621C6.68435 12.6482 7.02406 12.8751 7.39796 13.0297C7.77185 13.1844 8.17258 13.2637 8.57719 13.2632ZM8.57719 17.8465C8.57719 17.8465 7.82944 17.9432 7.37194 17.3095C6.95794 16.7305 6.92719 14.812 6.92419 14.4647H10.2332C10.2444 15.8455 10.0839 16.852 9.75394 17.359C9.42094 17.8765 8.57719 17.8472 8.57719 17.8472V17.8465Z" fill="black"/>
<path d="M22.0052 20.5637C22.1185 20.7497 22.2947 21.1277 22.2947 21.3662C22.2947 22.0862 21.7135 22.6644 20.9957 22.6644H16.7229C16.2377 22.6644 15.6002 22.4687 15.328 22.0607C14.4092 20.6964 13.438 19.2587 13.1515 18.8289L13.1515 26.9079L2.39045 26.9079V18.6227C2.39045 16.4559 4.0832 14.5052 6.0857 14.5052C6.08045 15.5222 6.21695 17.2112 6.81245 17.9507C7.4342 18.7059 8.1662 18.6399 8.1662 18.6399V21.7922C7.93555 21.8863 7.74485 22.0578 7.62685 22.2772C7.50884 22.4966 7.47089 22.7502 7.51951 22.9945C7.56812 23.2388 7.70028 23.4586 7.89328 23.6161C8.08628 23.7736 8.32809 23.859 8.5772 23.8577C8.71829 23.8578 8.85802 23.83 8.98838 23.7761C9.11873 23.7221 9.23715 23.6429 9.33685 23.543C9.43655 23.4432 9.51557 23.3247 9.56939 23.1942C9.6232 23.0638 9.65074 22.924 9.65045 22.7829C9.65045 22.3367 9.37895 21.9542 8.99045 21.7922V18.6257C8.99045 18.6257 9.62945 18.6782 10.2332 18.0729C11.0394 17.2329 11.0695 14.8524 11.068 14.4632H11.2637C11.9144 14.4627 12.5552 14.6231 13.129 14.9301C13.7027 15.2371 14.1917 15.6811 14.5525 16.2227L17.1107 20.0829L20.992 20.0814L26.473 14.5997C26.5218 14.5505 26.5799 14.5114 26.644 14.4847C26.708 14.4581 26.7767 14.4443 26.8461 14.4443C26.9154 14.4443 26.9841 14.4581 27.0482 14.4847C27.1122 14.5114 27.1703 14.5505 27.2192 14.5997C27.2685 14.6486 27.3076 14.7068 27.3344 14.7709C27.3611 14.835 27.375 14.9038 27.3751 14.9733C27.3753 15.0427 27.3617 15.1115 27.3352 15.1757C27.3087 15.2399 27.2698 15.2983 27.2207 15.3474L22.0044 20.5644L22.0052 20.5637Z" fill="black"/>
</g>
<defs>
<clipPath id="clip0_38_170">
<rect width="48.75" height="48" fill="white" transform="matrix(-1 0 0 1 48.9865 0.23645)"/>
</clipPath>
</defs>
</svg>
